<svg width="32" height="32" viewBox="0 0 32 32" fill="none" xmlns="http://www.w3.org/2000/svg">
<g clip-path="url(#clip0)">
<path d="M31.0466 17.9409H17.0884L26.3842 27.2368C26.7395 27.5921 27.3242 27.6209 27.6895 27.2768C29.966 25.1321 31.5319 22.2409 31.9913 18.9909C32.0701 18.4344 31.6084 17.9409 31.0466 17.9409ZM30.1154 14.1291C29.6307 7.10207 24.0154 1.48677 16.9884 1.00207C16.4519 0.965007 16.0001 1.41736 16.0001 1.95501V15.1174H29.1631C29.7007 15.1174 30.1525 14.6656 30.1154 14.1291ZM13.1766 17.9409V3.98265C13.1766 3.42089 12.6831 2.95912 12.1272 3.03795C5.11719 4.02854 -0.241048 10.1527 0.00836386 17.4921C0.264834 25.0297 6.75483 31.2109 14.296 31.1162C17.2607 31.0791 20.0001 30.1238 22.2525 28.5262C22.7172 28.1968 22.7478 27.5127 22.3448 27.1097L13.1766 17.9409Z" fill="#19C1CE"/>
</g>
<defs>
<clipPath id="clip0">
<rect width="32" height="32" fill="white"/>
</clipPath>
</defs>
</svg>
