<svg width="32" height="32" viewBox="0 0 32 32" fill="none" xmlns="http://www.w3.org/2000/svg">
<g clip-path="url(#clip0)">
<path d="M3.2 14.984C2.5671 14.984 1.94841 15.1717 1.42218 15.5233C0.895939 15.8749 0.485787 16.3747 0.243587 16.9594C0.0013865 17.5442 -0.0619842 18.1876 0.0614885 18.8083C0.184961 19.4291 0.489732 19.9992 0.93726 20.4468C1.38479 20.8943 1.95497 21.1991 2.57571 21.3225C3.19645 21.446 3.83986 21.3826 4.42459 21.1404C5.00931 20.8982 5.50908 20.4881 5.8607 19.9618C6.21233 19.4356 6.4 18.8169 6.4 18.184C6.39921 17.3356 6.06181 16.5221 5.46187 15.9222C4.86192 15.3222 4.04845 14.9848 3.2 14.984ZM7.6 18.984H10V17.384H7.6V18.984ZM22.32 13.644L23.28 14.924L25.68 13.124L24.72 11.844L22.32 13.644ZM28.8 6.18402C28.1671 6.18402 27.5484 6.3717 27.0222 6.72332C26.4959 7.07494 26.0858 7.57471 25.8436 8.15943C25.6014 8.74416 25.538 9.38757 25.6615 10.0083C25.785 10.629 26.0897 11.1992 26.5373 11.6468C26.9848 12.0943 27.555 12.3991 28.1757 12.5225C28.7965 12.646 29.4399 12.5826 30.0246 12.3404C30.6093 12.0982 31.1091 11.6881 31.4607 11.1618C31.8123 10.6356 32 10.0169 32 9.38402C31.9992 8.53557 31.6618 7.7221 31.0619 7.12216C30.4619 6.52221 29.6484 6.18482 28.8 6.18402Z" fill="#19C1CE"/>
<path d="M28.8003 22.184C28.1084 22.1874 27.4363 22.4155 26.8853 22.834L22.0853 19.954C22.2873 19.3837 22.3938 18.784 22.4003 18.179C22.4007 17.4435 22.2562 16.7151 21.9749 16.0355C21.6936 15.3559 21.2811 14.7384 20.761 14.2183C20.2409 13.6982 19.6234 13.2857 18.9438 13.0045C18.2642 12.7232 17.5359 12.5786 16.8003 12.579C16.3895 12.581 15.9802 12.6297 15.5803 12.724L13.5403 8.35399C14.0369 7.81459 14.3327 7.12067 14.3779 6.38888C14.4231 5.65709 14.2151 4.93204 13.7887 4.3356C13.3623 3.73916 12.7435 3.30769 12.0365 3.11373C11.3294 2.91976 10.5771 2.97512 9.90604 3.2705C9.23499 3.56588 8.68608 4.08327 8.35157 4.7357C8.01707 5.38814 7.91736 6.13584 8.06922 6.85313C8.22108 7.57042 8.61524 8.21356 9.18545 8.67446C9.75566 9.13536 10.4672 9.3859 11.2003 9.38399C11.2553 9.38399 11.3053 9.36899 11.3603 9.36899L13.4103 13.759C12.0753 14.779 11.2003 16.374 11.2003 18.184C11.1974 19.3052 11.532 20.4014 12.1606 21.3299C12.7892 22.2584 13.6827 22.9761 14.7249 23.3899C15.767 23.8036 16.9095 23.8941 18.0038 23.6496C19.098 23.4051 20.0934 22.8369 20.8603 22.019L25.6503 24.894C25.5515 25.5391 25.6527 26.1989 25.9403 26.7847C26.2279 27.3705 26.688 27.8542 27.2587 28.1706C27.8295 28.4869 28.4835 28.6209 29.1327 28.5543C29.7818 28.4878 30.3951 28.224 30.8898 27.7984C31.3845 27.3728 31.7369 26.8058 31.8996 26.1739C32.0624 25.5419 32.0276 24.8752 31.8 24.2636C31.5724 23.652 31.1629 23.1248 30.6266 22.753C30.0903 22.3812 29.4529 22.1826 28.8003 22.184ZM16.8003 20.584C16.3257 20.584 15.8616 20.4432 15.467 20.1795C15.0723 19.9158 14.7647 19.541 14.583 19.1024C14.4014 18.6639 14.3538 18.1813 14.4465 17.7158C14.5391 17.2502 14.7676 16.8226 15.1033 16.4869C15.4389 16.1513 15.8666 15.9227 16.3321 15.8301C16.7977 15.7375 17.2802 15.785 17.7188 15.9667C18.1573 16.1483 18.5321 16.4559 18.7959 16.8506C19.0596 17.2453 19.2003 17.7093 19.2003 18.184C19.2003 18.8205 18.9475 19.431 18.4974 19.881C18.0473 20.3311 17.4369 20.584 16.8003 20.584Z" fill="#19C1CE"/>
</g>
<defs>
<clipPath id="clip0">
<rect width="32" height="32" fill="white"/>
</clipPath>
</defs>
</svg>
