<svg width="20" height="20" viewBox="0 0 20 20" fill="none" xmlns="http://www.w3.org/2000/svg">
<path d="M9.99988 13.7501C8.02462 13.7501 6.42567 12.2212 6.27854 10.2837L3.54677 8.17249C3.18766 8.62301 2.85719 9.09931 2.59053 9.62014C2.53095 9.73798 2.49991 9.86818 2.49991 10.0002C2.49991 10.1323 2.53095 10.2625 2.59053 10.3803C4.00276 13.1358 6.79859 15.0001 9.99988 15.0001C10.7007 15.0001 11.3767 14.8959 12.0283 14.7277L10.677 13.6821C10.4538 13.7252 10.2272 13.748 9.99988 13.7501ZM18.1723 15.2631L15.2934 13.0381C16.1679 12.3011 16.8871 11.3976 17.4092 10.38C17.4688 10.2622 17.4998 10.132 17.4998 9.99996C17.4998 9.86792 17.4688 9.73772 17.4092 9.61988C15.997 6.86442 13.2012 5.0001 9.99988 5.0001C8.65913 5.00173 7.34015 5.33926 6.16343 5.98187L2.85042 3.4212C2.80722 3.38758 2.75781 3.36281 2.70503 3.34829C2.65225 3.33378 2.59713 3.3298 2.54281 3.3366C2.48849 3.34339 2.43605 3.36083 2.38847 3.3879C2.34089 3.41497 2.29911 3.45115 2.26553 3.49438L1.75433 4.15245C1.68652 4.23969 1.65613 4.35028 1.66985 4.45992C1.68358 4.56956 1.74028 4.66925 1.82751 4.73708L17.1493 16.579C17.1925 16.6126 17.2419 16.6374 17.2947 16.6519C17.3475 16.6664 17.4026 16.6704 17.4569 16.6636C17.5113 16.6568 17.5637 16.6393 17.6113 16.6123C17.6589 16.5852 17.7006 16.549 17.7342 16.5058L18.2457 15.8477C18.3135 15.7605 18.3438 15.6498 18.33 15.5402C18.3163 15.4306 18.2595 15.3309 18.1723 15.2631ZM13.3879 11.5652L12.3645 10.774C12.4506 10.5249 12.4964 10.2636 12.4999 10.0001C12.505 9.61422 12.4195 9.23254 12.2503 8.8857C12.0811 8.53886 11.8329 8.23654 11.5257 8.00302C11.2185 7.76949 10.8608 7.61127 10.4813 7.54107C10.1018 7.47087 9.7112 7.49064 9.34077 7.59879C9.4978 7.81158 9.58274 8.06897 9.58321 8.33343C9.57933 8.42143 9.56588 8.50875 9.54311 8.59384L7.62619 7.11234C8.29207 6.55588 9.1321 6.25074 9.99988 6.2501C10.4924 6.24983 10.9802 6.34664 11.4353 6.53499C11.8904 6.72335 12.3039 6.99956 12.6521 7.34784C13.0004 7.69611 13.2766 8.10961 13.465 8.56471C13.6533 9.0198 13.7501 9.50756 13.7499 10.0001C13.7499 10.5634 13.6121 11.0884 13.3879 11.5654V11.5652Z" fill="#212429"/>
</svg>
