<svg width="32" height="32" viewBox="0 0 32 32" fill="none" xmlns="http://www.w3.org/2000/svg">
<path d="M22.0312 10.5C21.125 4.91875 18.9875 1 16.5 1C14.0125 1 11.875 4.91875 10.9688 10.5H22.0312ZM10.5 16.5C10.5 17.8875 10.575 19.2188 10.7063 20.5H22.2875C22.4188 19.2188 22.4937 17.8875 22.4937 16.5C22.4937 15.1125 22.4188 13.7812 22.2875 12.5H10.7063C10.575 13.7812 10.5 15.1125 10.5 16.5ZM30.7938 10.5C29.0063 6.25625 25.3875 2.975 20.9188 1.65C22.4438 3.7625 23.4938 6.94375 24.0438 10.5H30.7938ZM12.075 1.65C7.6125 2.975 3.9875 6.25625 2.20625 10.5H8.95625C9.5 6.94375 10.55 3.7625 12.075 1.65ZM31.4625 12.5H24.2938C24.425 13.8125 24.5 15.1562 24.5 16.5C24.5 17.8438 24.425 19.1875 24.2938 20.5H31.4562C31.8 19.2188 31.9937 17.8875 31.9937 16.5C31.9937 15.1125 31.8 13.7812 31.4625 12.5ZM8.5 16.5C8.5 15.1562 8.575 13.8125 8.70625 12.5H1.5375C1.2 13.7812 1 15.1125 1 16.5C1 17.8875 1.2 19.2188 1.5375 20.5H8.7C8.575 19.1875 8.5 17.8438 8.5 16.5ZM10.9688 22.5C11.875 28.0812 14.0125 32 16.5 32C18.9875 32 21.125 28.0812 22.0312 22.5H10.9688ZM20.925 31.35C25.3875 30.025 29.0125 26.7437 30.8 22.5H24.05C23.5 26.0562 22.45 29.2375 20.925 31.35ZM2.20625 22.5C3.99375 26.7437 7.6125 30.025 12.0813 31.35C10.5563 29.2375 9.50625 26.0562 8.95625 22.5H2.20625Z" fill="#19C1CE"/>
</svg>
