<svg width="20" height="20" viewBox="0 0 20 20" fill="none" xmlns="http://www.w3.org/2000/svg">
<path d="M17.4098 9.61986C15.9975 6.86439 13.2017 5.00006 10.0004 5.00006C6.79906 5.00006 4.00244 6.86569 2.59098 9.62012C2.5314 9.73796 2.50037 9.86816 2.50037 10.0002C2.50037 10.1322 2.5314 10.2624 2.59098 10.3803C4.00322 13.1358 6.79906 15.0001 10.0004 15.0001C13.2017 15.0001 15.9983 13.1345 17.4098 10.38C17.4693 10.2622 17.5004 10.132 17.5004 9.99994C17.5004 9.8679 17.4693 9.7377 17.4098 9.61986ZM10.0004 13.7501C9.25869 13.7501 8.53366 13.5301 7.91697 13.1181C7.30029 12.706 6.81964 12.1204 6.53581 11.4351C6.25198 10.7499 6.17772 9.99591 6.32241 9.26848C6.46711 8.54105 6.82426 7.87286 7.34871 7.34841C7.87316 6.82397 8.54135 6.46681 9.26878 6.32212C9.99621 6.17742 10.7502 6.25169 11.4354 6.53552C12.1207 6.81934 12.7063 7.29999 13.1184 7.91668C13.5304 8.53336 13.7504 9.25839 13.7504 10.0001C13.7506 10.4926 13.6538 10.9803 13.4654 11.4354C13.277 11.8905 13.0008 12.304 12.6526 12.6523C12.3043 13.0005 11.8908 13.2767 11.4357 13.4651C10.9806 13.6535 10.4929 13.7503 10.0004 13.7501ZM10.0004 7.50007C9.77722 7.50318 9.55552 7.53638 9.34125 7.59876C9.51787 7.83878 9.60263 8.13415 9.58015 8.4313C9.55767 8.72845 9.42944 9.00771 9.21872 9.21843C9.00801 9.42915 8.72875 9.55737 8.4316 9.57985C8.13445 9.60233 7.83908 9.51757 7.59906 9.34095C7.46238 9.84449 7.48706 10.3782 7.6696 10.867C7.85215 11.3558 8.18338 11.775 8.61667 12.0657C9.04996 12.3564 9.56349 12.5038 10.085 12.4874C10.6065 12.4709 11.1097 12.2913 11.5238 11.9739C11.9379 11.6564 12.242 11.2171 12.3933 10.7178C12.5446 10.2184 12.5356 9.68423 12.3674 9.19032C12.1992 8.69641 11.8804 8.26768 11.4557 7.96447C11.0311 7.66126 10.5221 7.49884 10.0004 7.50007Z" fill="#212429"/>
</svg>
